<svg width="296" height="37" viewBox="0 0 296 37" fill="none" xmlns="http://www.w3.org/2000/svg">
<path d="M0.2 36V0.749998H17.2C21 0.749998 23.9333 1.58333 26 3.25C28.1 4.88333 29.15 7.08333 29.15 9.85C29.15 11.6833 28.6833 13.2833 27.75 14.65C26.85 16.0167 25.5833 17.0333 23.95 17.7C25.9167 18.3 27.4333 19.3167 28.5 20.75C29.5667 22.15 30.1 23.9 30.1 26C30.1 29.1 28.9833 31.55 26.75 33.35C24.55 35.1167 21.5333 36 17.7 36H0.2ZM9 14.75H15.55C17.2167 14.75 18.4333 14.45 19.2 13.85C20 13.25 20.4 12.3333 20.4 11.1C20.4 9.86667 20 8.96667 19.2 8.4C18.4333 7.8 17.2167 7.5 15.55 7.5H9V14.75ZM9 29.25H16.45C18.15 29.25 19.3833 28.9333 20.15 28.3C20.95 27.6333 21.35 26.65 21.35 25.35C21.35 24.05 20.95 23.0833 20.15 22.45C19.3833 21.8167 18.15 21.5 16.45 21.5H9V29.25ZM35.4598 36L51.9598 0.749998H59.2098L75.7098 36H66.5098L63.4598 28.85H47.7098L44.6598 36H35.4598ZM55.5098 10.35L50.7098 21.8H60.4098L55.6098 10.35H55.5098ZM82.3445 36V0.749998H89.0945L105.295 20.95V0.749998H113.795V36H107.095L90.8945 15.8V36H82.3445ZM124.735 36V0.749998H133.935V15.85H134.035L147.735 0.749998H158.635L142.935 17.5L159.185 36H148.235L134.035 20.1H133.935V36H124.735ZM183.638 36V0.749998H192.838V36H183.638ZM203.714 36V0.749998H210.464L226.664 20.95V0.749998H235.164V36H228.464L212.264 15.8V36H203.714ZM263.904 36.55C260.004 36.55 256.654 35.8 253.854 34.3C251.054 32.8 248.904 30.6833 247.404 27.95C245.938 25.2167 245.204 22.0167 245.204 18.35C245.204 14.6833 245.938 11.5 247.404 8.8C248.904 6.06666 251.054 3.95 253.854 2.45C256.654 0.949999 260.004 0.199999 263.904 0.199999C266.238 0.199999 268.488 0.566666 270.654 1.3C272.821 2 274.571 2.93333 275.904 4.1L273.154 11.35C271.688 10.2833 270.221 9.5 268.754 9C267.288 8.46666 265.788 8.2 264.254 8.2C261.154 8.2 258.821 9.08333 257.254 10.85C255.688 12.5833 254.904 15.0833 254.904 18.35C254.904 21.65 255.688 24.1833 257.254 25.95C258.821 27.6833 261.154 28.55 264.254 28.55C265.788 28.55 267.288 28.3 268.754 27.8C270.221 27.2667 271.688 26.4667 273.154 25.4L275.904 32.65C274.571 33.8167 272.821 34.7667 270.654 35.5C268.488 36.2 266.238 36.55 263.904 36.55Z" fill="#281A6A"/>
<path d="M284.267 36V25.262H295.182V36H284.267Z" fill="#FF825E"/>
</svg>
