<svg width="26" height="26" viewBox="0 0 26 26" fill="none" xmlns="http://www.w3.org/2000/svg">
<path d="M25.9037 12.6923C25.699 12.3944 20.7784 5.41653 12.9999 5.41653C6.3254 5.41653 0.377806 12.3543 0.127552 12.6501C-0.0425173 12.8516 -0.0425173 13.1473 0.127552 13.3499C0.377806 13.6457 6.3254 20.5835 12.9999 20.5835C19.6745 20.5835 25.622 13.6457 25.8723 13.3499C26.0294 13.1636 26.0435 12.8938 25.9037 12.6923ZM12.9999 19.5001C7.64929 19.5001 2.56184 14.3975 1.26944 13C2.55971 11.6014 7.64172 6.49992 12.9999 6.49992C19.2606 6.49992 23.6796 11.5949 24.7586 12.9708C23.5127 14.3239 18.3961 19.5001 12.9999 19.5001Z" fill="#281A6A"/>
<path d="M13 8.6666C10.6102 8.6666 8.66663 10.6101 8.66663 13C8.66663 15.3898 10.6102 17.3334 13 17.3334C15.3899 17.3334 17.3334 15.3898 17.3334 13C17.3334 10.6101 15.3899 8.6666 13 8.6666ZM13 16.2501C11.2082 16.2501 9.74996 14.7919 9.74996 13C9.74996 11.2082 11.2082 9.74998 13 9.74998C14.7919 9.74998 16.2501 11.2082 16.2501 13C16.2501 14.7919 14.7919 16.2501 13 16.2501Z" fill="#281A6A"/>
<path d="M0.5 22L25.5 3" stroke="#281A6A"/>
</svg>
